<?xml version="1.0" encoding="utf-8"?><!--
 // 16pxls (c) by Paul mackenzie <paul@whatspauldoing.com>
 //
 // 16pxls is licensed under a
 // Creative Commons Attribution-ShareAlike 4.0 International License.
 //
 // You should have received a copy of the license along with this
 // work. If not, see <http://creativecommons.org/licenses/by-sa/4.0/>.
-->

<svg fill="#000000" width="800px" height="800px" viewBox="0 0 16 16" xmlns="http://www.w3.org/2000/svg">
    <path d="M12.027 9.92L16 13.95 14 16l-4.075-3.976A6.465 6.465 0 0 1 6.5 13C2.91 13 0 10.083 0 6.5 0 2.91 2.917 0 6.5 0 10.09 0 13 2.917 13 6.5a6.463 6.463 0 0 1-.973 3.42zM1.997 6.452c0 2.48 2.014 4.5 4.5 4.5 2.48 0 4.5-2.015 4.5-4.5 0-2.48-2.015-4.5-4.5-4.5-2.48 0-4.5 2.014-4.5 4.5z" fill-rule="evenodd"/>
</svg>