<?xml version="1.0" encoding="UTF-8"?>
<svg version="1.1" xmlns="http://www.w3.org/2000/svg" width="500" height="500">
<path d="M0 0 C7.71152567 -0.09343195 15.42291422 -0.16413063 23.13486671 -0.20724869 C26.71739581 -0.22796242 30.29953256 -0.25597494 33.88183594 -0.30175781 C37.35080084 -0.34580547 40.81939282 -0.36925832 44.28861618 -0.37950897 C46.2303474 -0.39029873 48.17193239 -0.42142596 50.11343384 -0.45318604 C62.99693126 -0.45637599 74.45648856 2.45806479 85 10 C85.62261719 10.43957031 86.24523437 10.87914063 86.88671875 11.33203125 C106.26912013 26.44594873 114.14232894 57.33393793 123.58244324 79.12487793 C127.65131139 88.51250629 131.75998926 97.88252522 135.875 107.25 C136.42654251 108.50623169 136.42654251 108.50623169 136.98922729 109.7878418 C141.32679998 119.66670415 145.67756718 129.5396528 150.04296875 139.40625 C150.46370667 140.35739685 150.88444458 141.3085437 151.31793213 142.28851318 C153.33296556 146.84324033 155.34942786 151.3973246 157.36865234 155.95019531 C158.11192903 157.62813325 158.85493431 159.30619144 159.59765625 160.984375 C159.95607605 161.79416809 160.31449585 162.60396118 160.68377686 163.43829346 C163.91202362 170.75549557 167.05583303 178.10831495 170.16700745 185.47601318 C170.52366989 186.31569641 170.88033234 187.15537964 171.24780273 188.02050781 C171.56273178 188.76617004 171.87766083 189.51183228 172.20213318 190.28009033 C172.87574757 191.99037398 172.87574757 191.99037398 174 193 C174.21281113 192.41310394 174.42562225 191.82620789 174.6448822 191.2215271 C184.58630199 163.8086511 194.55502244 136.40723127 204.68530273 109.06347656 C205.37616901 107.19857871 206.06700552 105.33366982 206.7578125 103.46875 C207.27067558 102.08426666 207.27067558 102.08426666 207.79389954 100.67181396 C210.45498049 93.48339311 213.10133248 86.28962384 215.7421875 79.09375 C216.14055817 78.00830902 216.53892883 76.92286804 216.94937134 75.80453491 C218.85901694 70.60015719 220.76735256 65.39530231 222.67431641 60.18994141 C227.71723639 46.43492691 232.84368454 32.71295707 238 19 C228.43 15.04 218.86 11.08 209 7 C209 4.69 209 2.38 209 0 C229.36831655 -0.07040009 249.73660806 -0.12313886 270.10502148 -0.15543652 C279.56460347 -0.17083829 289.02410943 -0.19179815 298.48364258 -0.22631836 C306.73839621 -0.2564274 314.99309471 -0.27562346 323.24790174 -0.28226548 C327.60984305 -0.28614173 331.97162679 -0.29510779 336.33351707 -0.31719017 C354.09481978 -0.40363097 371.49021259 -0.43776401 389 3 C390.10257141 3.21453323 391.20514282 3.42906647 392.34112549 3.65010071 C394.70988454 4.13702234 397.03754929 4.69404786 399.375 5.3125 C400.19186279 5.52414795 401.00872559 5.7357959 401.8503418 5.95385742 C419.90856618 10.80692799 436.56015155 19.10953169 451 31 C451.92425781 31.75925781 452.84851563 32.51851562 453.80078125 33.30078125 C479.9264913 55.87901157 492.15058809 89.26279406 495 123 C495.33525121 128.89238728 495.34183999 134.78741586 495.3125 140.6875 C495.31034485 141.47303253 495.3081897 142.25856506 495.30596924 143.06790161 C495.25112263 155.57023452 494.74666544 167.75664476 492 180 C491.81195801 180.84449707 491.62391602 181.68899414 491.43017578 182.55908203 C485.95699638 206.03235979 475.48867456 225.51556179 459 243 C458.38769531 243.67675781 457.77539062 244.35351562 457.14453125 245.05078125 C433.01694067 270.72171451 394.648519 280.53129898 360.61721802 282.16210556 C352.141063 282.40211116 343.6659168 282.34608433 335.1875 282.29296875 C332.50894426 282.28735589 329.83041285 282.2829457 327.15185547 282.28010559 C320.89457521 282.27090167 314.63745836 282.24645189 308.38024902 282.21605712 C301.23837645 282.18214246 294.0964947 282.16593548 286.95456123 282.15097082 C272.3029585 282.11988697 257.65148215 282.06736217 243 282 C243 279.69 243 277.38 243 275 C245.87394498 274.18360682 248.7490513 273.37177859 251.625 272.5625 C252.43324219 272.33240234 253.24148438 272.10230469 254.07421875 271.86523438 C254.86699219 271.64287109 255.65976562 271.42050781 256.4765625 271.19140625 C257.5605835 270.88505249 257.5605835 270.88505249 258.66650391 270.57250977 C261.41193652 269.89893376 264.21160815 269.46473197 267 269 C266.505 142.775 266.505 142.775 266 14 C262.37 15.32 258.74 16.64 255 18 C254.01 18 253.02 18 252 18 C251.82263809 18.61379013 251.64527618 19.22758026 251.46253967 19.85997009 C249.72671436 25.7690239 247.78053339 31.55009796 245.62109375 37.31640625 C245.29740311 38.18879944 244.97371246 39.06119263 244.64021301 39.96002197 C243.94146023 41.84230723 243.24131996 43.72407789 242.53991699 45.6053772 C241.01580017 49.69366741 239.49870002 53.78455086 237.98117065 57.87528992 C237.18375231 60.02475578 236.38599809 62.17409707 235.58792114 64.32331848 C231.81798481 74.47863271 228.08022209 84.64562989 224.3494873 94.81539917 C222.47485653 99.9254695 220.59882768 105.0350264 218.72265625 110.14453125 C218.34084198 111.18436661 217.95902771 112.22420197 217.56564331 113.29554749 C212.94852642 125.86698699 208.31826732 138.43358369 203.6875 151 C203.25041718 152.18614899 202.81333435 153.37229797 202.36300659 154.59439087 C198.79454409 164.27824972 195.22547343 173.9618844 191.65637207 183.64550781 C188.54146414 192.0969006 185.42679607 200.54838173 182.3125 209 C181.88179199 210.16884735 181.45108398 211.3376947 181.00732422 212.54196167 C171.98743804 237.02156755 162.98993266 261.50938019 154 286 C149.38 286 144.76 286 140 286 C131.13938697 266.52659484 122.45147098 246.98319326 113.86805725 227.38615417 C113.48362961 226.50848892 113.09920197 225.63082367 112.703125 224.7265625 C112.31680405 223.84450638 111.93048309 222.96245026 111.53245544 222.05366516 C107.23001674 212.23488402 102.89771972 202.42934157 98.5625 192.625 C97.76806609 190.82796238 96.97363249 189.03092462 96.17919922 187.23388672 C93.78663836 181.82236752 91.39338582 176.41115437 89 171 C85.8118402 163.79195829 82.62410849 156.58372769 79.4375 149.375 C79.04410431 148.48508362 78.65070862 147.59516724 78.24539185 146.67828369 C72.10463102 132.78479068 65.98986825 118.88003302 59.89001465 104.96853638 C55.64228859 95.28149221 51.3849683 85.5988366 47.10546875 75.92578125 C46.69787323 75.00401093 46.29027771 74.0822406 45.87033081 73.13253784 C43.84482985 68.55313347 41.81578219 63.97535585 39.78027344 59.40039062 C36.14403062 51.21445404 32.56204444 43.01685451 29.16015625 34.73046875 C28.5724274 33.31452871 27.98430544 31.89875176 27.39575195 30.4831543 C26.32700389 27.91240919 25.28979317 25.33204595 24.27026367 22.74145508 C21.80994606 16.1171984 21.80994606 16.1171984 16.57421875 11.85546875 C14.80498047 11.43201172 14.80498047 11.43201172 13 11 C11.25396484 10.42185547 11.25396484 10.42185547 9.47265625 9.83203125 C8.34730469 9.49558594 7.22195312 9.15914062 6.0625 8.8125 C4.91910156 8.46832031 3.77570312 8.12414062 2.59765625 7.76953125 C1.74042969 7.51558594 0.88320312 7.26164062 0 7 C0 4.69 0 2.38 0 0 Z M334 11 C334 96.8 334 182.6 334 271 C356.98969646 271 375.74933743 269.71578737 393 254 C395.52365287 251.46576578 397.79047864 248.81071671 400 246 C400.57492187 245.28457031 401.14984375 244.56914062 401.7421875 243.83203125 C423.02775164 215.59318283 424.23823521 174.95127137 424.1875 141.0625 C424.18689575 140.3067569 424.1862915 139.55101379 424.18566895 138.77236938 C424.10470066 101.14531943 421.26407758 58.56737791 394.61328125 29.38671875 C377.08154013 12.11703654 358.23391254 11 334 11 Z " fill="#000000" transform="translate(3,112)"/>
</svg>
